<?xml version="1.0" encoding="UTF-8"?>
<svg id="Layer_1" data-name="Layer 1" xmlns="http://www.w3.org/2000/svg" viewBox="0 0 384.96 313.44">
  <defs>
    <style>
      .cls-1 {
        fill: #0e7d45;
      }

      .cls-2 {
        fill: #16814c;
      }

      .cls-3 {
        fill: #0e7d46;
      }

      .cls-4 {
        fill: #117f48;
      }

      .cls-5 {
        fill: #0f7d46;
      }

      .cls-6 {
        fill: #f2944c;
      }

      .cls-7 {
        fill: #0f7e46;
      }

      .cls-8 {
        fill: #138049;
      }

      .cls-9 {
        fill: #107e47;
      }

      .cls-10 {
        fill: #f19045;
      }

      .cls-11 {
        fill: #f19147;
      }

      .cls-12 {
        fill: #f1934b;
      }

      .cls-13 {
        fill: #f19146;
      }

      .cls-14 {
        fill: #f1934a;
      }

      .cls-15 {
        fill: #f2954d;
      }

      .cls-16 {
        fill: #f19044;
      }

      .cls-17 {
        fill: #208753;
      }
    </style>
  </defs>
  <path class="cls-16" d="M192.43,148.42c17.31-1.12,32.64,8.19,44.28,20.13l-36.68,36.68c-3.59,3-9.04,2.71-12.55-.31l-35.36-35.43c-.08-.95,6.63-6.57,7.8-7.5,9.27-7.33,20.53-12.8,32.52-13.58Z"/>
  <path class="cls-3" d="M180.89,143c-13.31,3.05-24.43,11.71-34.34,20.7l-25.85-25.83c11.75-11.86,27.59-12.83,42.53-6.52,4.85,2.05,12.77,6.49,16.56,10.1.25.24,1.46,1.24,1.1,1.56Z"/>
  <path class="cls-1" d="M207.54,142.69c-.42-.46,1.98-2.18,2.36-2.49,14.45-11.68,35.39-17.93,51.99-6.85.86.58,5.24,3.79,5.24,4.49l-25.57,25.86c-9.24-9.74-20.75-17.95-34.03-21Z"/>
  <path class="cls-4" d="M187.47,141.44c-.49-.08-.59-.58-.77-.95-1.23-2.41-2.08-5.5-3.24-8.04-7.98-17.45-22.72-38.74-44.43-37.72-12.42.59-20,10.58-21.17,22.26,4.56-4.02,10.6-6.12,16.55-7.12,13.57-2.27,23.11.55,33.46,9.32,5.44,4.61,14.09,14.89,16.8,21.45.2.49.42.84.29,1.43-.64.13-.73-.31-1-.72-5.33-7.93-8.22-12.99-16.46-18.66-16.87-11.58-44.62-12.59-51.38,10.6-.51,0-6.67-6.19-7.37-7.05-3.65-4.44-3.81-9.47-.15-13.96l27.14-27.11c27.15-2.15,42.63,25.64,49.63,47.88.85,2.7,1.82,5.6,2.11,8.39Z"/>
  <path class="cls-9" d="M203.15,141.75c-.11-.56.15-.9.36-1.36,7.67-16.29,25.35-32.4,44.32-31.24,7.78.47,16.43,2.71,22.42,7.83-1.37-11.83-8.8-21.81-21.46-22.27-20.41-.74-34.93,18.42-42.88,34.91-1.7,3.53-2.93,7.27-4.56,10.81-.2.44.19.85-.71.68.76-4.43,2.3-8.99,3.84-13.24,7.43-20.53,22.57-44.69,47.58-42.71l27.77,27.73c6.22,8.91-2.16,14.66-7.85,20.38-1.21-3.33-2.33-6.41-4.55-9.24-8.17-10.37-24.02-11.04-35.67-7.15-9.1,3.04-18.43,10.61-23.98,18.36-1.27,1.77-2.39,4.21-3.62,5.78-.3.38-.36.85-1.01.71Z"/>
  <path class="cls-7" d="M84.3,228.28v14.89c0,.16.97,1.41,1.1,1.41h5.49v-16.3h4.7v20.06h-10.19c-.32,0-2.44-1.41-2.82-1.82-3.01,2.5-8.32,2.7-11.3,0-2.96,2.63-9.4,2.62-12.5.28-3.63,3.36-9.1,2.89-12.86,0-1.9,2.08-4.53,1.42-7.06,1.57-.78,5.47-6.53,7.81-11.34,6.02v-2.93c2.24.62,6.48.36,6.61-2.66.03-.66,0-.41-.47-.48-1.98-.3-3.47.34-5.62-.66-5.05-2.35-4.39-10.86.81-12.6,7.12-2.38,11.33,2.6,10.28,9.5l4.71-.16c1.3-.95.79-2.59,1.08-3.94,1.35-6.38,12.73-6.72,14.85-1.01.49,1.33.23,2.34.51,3.56.63,2.7,5.27,1.29,7.39,1.39.14-.09.63-.85.63-.94v-7.05h4.7v6.74c0,1.93,4.94,1.66,6.19,1.02.1-.09.4-.63.4-.7v-15.21h4.7ZM34.43,244.58v-4.55c0-.36-1.21-1.61-1.65-1.8-3.55-1.52-4.57,5.6-2.2,6.28,1.08.31,2.69-.08,3.85.07ZM51.59,239c-3.16.71-2.62,7.35,1.42,6.77,3.67-.53,3.31-7.83-1.42-6.77Z"/>
  <path class="cls-7" d="M358.39,244.58c.03-.75-.71-1.05-.88-1.79-1.58-6.98,6.82-10.15,12.07-7.05,4.91,2.89,3.96,10.38-1.48,12.13-2.09.67-11.02.81-13.31.46-1.13-.18-1.7-.94-2.21-1.87l-.62,1.58-.64.3h-24.79c-1.1.54-3.83-1.83-4.07-1.82-.1,0-1.07.93-1.6,1.16-4.47,1.97-15.29-.17-20.65.68-3.12.49-2.55,4.49-1.43,6.56-3.14,0-5.18.84-5.58-3.07-.36-3.62,2.82-6.6,6.2-6.97l-4.7-9.4h13.33c.09,0,1.49.39,1.73.47,3.34,1.2,3.26,6.44.94,8.62h8c.07,0,.78-.98.78-1.1v-7.05h4.7v6.74c0,.16.97,1.41,1.1,1.41h4.55v-7.21h4.39v3.6s.62.16.62.16c2.26-5.66,14.22-8.63,17.06-2.47.66,1.44.18,5.92,1.91,5.92h4.55ZM362.87,244.18c2.74,2.74,6.85-1.81,4.31-5.09-3-3.86-7.07,2.33-4.31,5.09ZM306.8,238.94c-1.36-.37-4.24.27-5.8,0,.83,1.67,1.25,6.02,3.61,5.97,2.87-.07,4.49-5.34,2.19-5.97ZM347.73,244.58c-.2-1.79.77-4.57-1.34-5.41-3.9-1.55-8.98,2.12-10.89,5.41h12.23Z"/>
  <path class="cls-9" d="M238.59,228.28v16.3h6.12c.07,0,.78-.98.78-1.1v-7.05h4.7v6.74c0,1.8,3.52,1.45,4.7,1.41v-15.83c1.09-.96,3-.27,4.39-.47v12.85c3.46-4.14,7.14-7.07,12.87-5.5,1.62.44,4.69,2.63,4.69,4.4v8.31h-25.25c-.68,0-2.5-1.38-3.14-1.82-.62.68-2.61,1.82-3.45,1.82h-11.13v-20.06h4.7ZM272.15,244.58c1.1-9.34-7.96-5.5-11.45-.94-.24.32-.6.4-.47.94h11.92Z"/>
  <path class="cls-7" d="M188.41,228.28v20.06h-9.88c-.68,0-2.5-1.38-3.14-1.82-2.94,2.88-7.5,1.53-11.24,1.81-1.24,5.55-6.19,7.64-11.45,6.24l-.04-3.09c2.23.62,6.46.36,6.59-2.66.03-.66,0-.41-.47-.48-.95-.14-2.14.1-3.14,0-4.79-.5-6.6-4.3-5.67-8.79.96-4.66,6.4-5.81,10.39-4.39,3.97,1.41,4.04,5.82,3.9,9.43l7.53-.16c.14-.09.63-.85.63-.94v-7.05h4.7v6.74c0,.16.97,1.41,1.1,1.41h5.49v-16.3h4.7ZM159.56,244.58v-4.55c0-.36-1.21-1.61-1.65-1.8-3.55-1.52-4.57,5.6-2.2,6.28,1.08.31,2.69-.08,3.85.07Z"/>
  <path class="cls-4" d="M125.38,240.5l-4.04-.03c-.89-5.07-7.32-.95-3.33,2.23,2.11,1.68,6.48,1.85,7.44,4.79s-.13,5.65-2.73,7.13c-3.26,1.86-10.43,2.01-13.75.25-3.66-1.93-4.85-6.07-4.6-9.98l3.75.02c.07,6.14,3.04,8.08,8.95,7.5,1.93-.19,5.69-1.66,3.62-3.92-1.76-1.93-7.31-2.18-8.33-6.1-2.36-9.04,12.47-11.01,13.02-1.89Z"/>
  <path class="cls-9" d="M230.44,236.43v11.91h-21.17c-.24,0-1.92-.68-2.26-.87-2.38-1.37-2.53-4.81-2.6-7.28h4.08c-.29.88.44,4.39,1.41,4.39h15.84v-8.15h4.7Z"/>
  <path class="cls-8" d="M139.49,248.34h-12.23v-3.76h7.21c.52-5.23-.72-6.48-5.96-5.96v-3.45h5.18c.32,0,2.72,1.25,3.13,1.57,3.48,2.66,2.5,7.75,2.67,11.6Z"/>
  <path class="cls-6" d="M204.09,278.75v-13.79h6.43c.98,0,2.93,1.33,3.43,2.22,1.1,1.97,1.08,7.15.11,9.16-.48,1-2.47,2.42-3.54,2.42h-6.43ZM207.23,276.25c4.73.7,4.75-2.36,4.41-6.13-.26-2.8-1.98-2.77-4.41-2.65v8.78Z"/>
  <rect class="cls-5" x="142.31" y="228.28" width="4.7" height="20.06"/>
  <rect class="cls-5" x="191.55" y="228.28" width="4.7" height="20.06"/>
  <rect class="cls-5" x="279.99" y="228.28" width="4.7" height="20.06"/>
  <path class="cls-8" d="M21.89,236.43v13.01c0,.1-.39,1.8-.46,2.04-1.1,3.45-4.47,4.08-7.65,3.08l-.04-3.09c1.61.71,3.45-.23,3.45-2.04v-13.01h4.7Z"/>
  <path class="cls-13" d="M19.96,265l4.75,13.75-3.1-.03-.62-2.29-4.85-.2-1.14,2.37-2.83.15,4.73-13.76h3.06ZM18.75,269.04c-.8-.13-.49.07-.65.44-.22.48-1.38,4.11-1.22,4.26h3.13l-1.26-4.7Z"/>
  <path class="cls-14" d="M174.93,264.96v13.79c-.79-.12-1.91.18-2.62,0-.25-.06-.19-.64-.37-.64-.85,0-1.47,1.32-3.62.82-3.23-.76-3.25-7.48-1.41-9.29,1.62-1.58,3.45-.83,5.19.02v-4.7h2.82ZM169.5,271.29c-1.35.41-1.07,4.61-.23,5.11,3.33,1.97,4.14-6.29.23-5.11Z"/>
  <path class="cls-11" d="M135.73,274.99l1.89-5.94,2.34.29c.48,1.53.89,3.08,1.37,4.6.13.4-.23.88.5.74l1.44-5.61,2.79-.03-3.12,9.57-2.51.13c-.25-.25-.81-5.23-1.89-5.63l-1.54,5.46-2.51.15-2.85-9.69,2.67.31,1.41,5.65Z"/>
  <path class="cls-10" d="M120.05,264.96v4.7c.98-.2,1.53-.95,2.67-.95,3.88,0,4.07,4.66,3.47,7.55-.59,2.82-3.87,3.62-5.98,1.86-.33,1.19-1.91.45-2.97.63v-13.79h2.82ZM123.11,271.62c-.36-.36-1.4-.48-1.9-.34-1.66.48-2.1,6.42,1.37,5.46,1.32-.37,1.16-4.49.53-5.12Z"/>
  <path class="cls-10" d="M71.75,264.96v4.7c.98-.2,1.53-.95,2.67-.95,3.88,0,4.07,4.66,3.47,7.55s-3.87,3.62-5.98,1.86c-.33,1.19-1.91.45-2.97.63v-13.79h2.82ZM74.81,271.62c-.36-.36-1.4-.48-1.9-.34-1.66.48-2.1,6.42,1.37,5.46,1.32-.37,1.16-4.49.53-5.12Z"/>
  <polygon class="cls-15" points="292.84 264.96 292.84 267.47 286.57 267.47 286.57 270.6 291.9 270.6 291.9 273.11 286.57 273.11 286.57 278.75 283.44 278.75 283.44 264.96 292.84 264.96"/>
  <path class="cls-11" d="M340.13,268.8c8.74-1.07,6.05,14.13-1.92,9.6-2.89-1.64-2.86-9.01,1.92-9.6ZM340.09,271.28c-1.2.41-1.13,4.58-.21,5.13,3.45,2.04,4.11-6.47.21-5.13Z"/>
  <path class="cls-11" d="M254.9,274.68h-6.27c-.08,2.69,2.91,2.12,4.5.97l1.46,1.68c-2.71,2.59-8.14,2.52-8.75-1.9-1.26-9.08,9.47-8.88,9.07-.76ZM252.08,272.8c.1-2.87-3.47-3.11-3.77-.16l3.77.16Z"/>
  <path class="cls-13" d="M159.88,278.75l-2.49-.03-.02-.92c-7.46,3.76-8.52-6.55,0-5.02.24-2.82-2.96-1.96-4.7-1.25l-.64-1.74c0-1.19,3.53-1.46,4.52-1.36s3.33.86,3.33,2v8.31ZM157.37,274.68c-.95.09-2.52-.33-3.17.44-1.6,1.9,4.01,3.01,3.17-.44Z"/>
  <path class="cls-13" d="M229.18,278.75l-2.49-.03-.02-.92c-7.46,3.76-8.52-6.55,0-5.02.24-2.82-2.96-1.96-4.7-1.25l-.64-1.74c0-1.19,3.53-1.46,4.52-1.36s3.33.86,3.33,2v8.31ZM226.67,274.68c-.95.09-2.52-.33-3.17.44-1.6,1.9,4.01,3.01,3.17-.44Z"/>
  <path class="cls-13" d="M306.02,278.75l-2.49-.03-.02-.92c-7.46,3.76-8.52-6.55,0-5.02.24-2.82-2.96-1.96-4.7-1.25l-.64-1.74c0-1.19,3.53-1.46,4.52-1.36s3.33.86,3.33,2v8.31ZM303.51,274.68c-.95.09-2.52-.33-3.17.44-1.6,1.9,4.01,3.01,3.17-.44Z"/>
  <path class="cls-13" d="M62.34,278.75l-2.49-.03-.02-.92c-7.46,3.76-8.52-6.55,0-5.02.24-2.82-2.96-1.96-4.7-1.25l-.64-1.74c0-1.19,3.53-1.46,4.52-1.36s3.33.86,3.33,2v8.31ZM59.84,274.68c-.95.09-2.52-.33-3.17.44-1.6,1.9,4.01,3.01,3.17-.44Z"/>
  <path class="cls-13" d="M100.92,278.75l-2.49-.03-.02-.92c-7.46,3.76-8.52-6.55,0-5.02.24-2.82-2.96-1.96-4.7-1.25l-.64-1.74c0-1.19,3.53-1.46,4.52-1.36s3.33.86,3.33,2v8.31ZM98.41,274.68c-.95.09-2.52-.33-3.17.44-1.6,1.9,4.01,3.01,3.17-.44Z"/>
  <path class="cls-11" d="M367.8,274.68c1.07-.5,1.76-5.3,2.24-5.6.55.06,2.94-.46,2.75.39-1.72,2.69-3.01,10.14-4.97,12.19-.6.63-2.12,1.1-2.95.82-2.13-2.98,1.87-1.61,1.67-4.47-.1-1.33-3.8-8.65-3.44-8.97l2.98.31,1.72,5.33Z"/>
  <path class="cls-11" d="M184.97,274.68c1.07-.5,1.76-5.3,2.24-5.6.55.06,2.94-.46,2.75.39-1.72,2.69-3.01,10.14-4.97,12.19-.6.63-2.12,1.1-2.95.82-2.13-2.98,1.87-1.61,1.67-4.47-.1-1.33-3.8-8.65-3.44-8.97l2.98.31,1.72,5.33Z"/>
  <path class="cls-11" d="M43.84,274.68c1.07-.5,1.76-5.3,2.24-5.6.55.06,2.94-.46,2.75.39-1.72,2.69-3.01,10.14-4.97,12.19-.6.63-2.12,1.1-2.95.82-2.13-2.98,1.87-1.61,1.67-4.47-.1-1.33-3.8-8.65-3.44-8.97l2.98.31,1.72,5.33Z"/>
  <path class="cls-13" d="M268.7,269.67c-.71,2.58-2.01.97-3.6.91-.48-.02-1.56-.05-1.73.5-.61,1.94,4.54.74,5.48,2.98,1.75,4.19-3.07,5.66-6.41,4.53-2.16-.73-3.04-1.39-.75-2.92.99.53,4.48,1.67,4.81.1s-5.08-.28-5.63-3.13c-.89-4.6,5-4.37,7.83-2.97Z"/>
  <path class="cls-11" d="M315.5,271.62c-.58.58-.58,3.98,0,4.55,1.31,1.31,2.79-.57,3.16-.51l1.73,1.37c-1.56,3.12-7.31,2.51-8.03-1.01-.18-.89-.19-3.08-.05-3.98.57-3.68,6.12-4.44,8.01-1.45l-1.66,1.54c-.37.06-1.85-1.82-3.16-.51Z"/>
  <path class="cls-12" d="M32.86,276.09l1.55.48v2.5c-5.9.76-4.18-3.99-4.36-7.98l-.93-.19-.06-1.69.98-.34-.02-2.96h2.83s0,3.14,0,3.14h1.57s0,1.7,0,1.7l-1.57.18v5.17Z"/>
  <path class="cls-12" d="M238.59,276.09l1.55.48v2.5c-5.9.76-4.18-3.99-4.36-7.98l-.93-.19-.06-1.69.98-.34-.02-2.96h2.83s0,3.14,0,3.14h1.57s0,1.7,0,1.7l-1.57.18v5.17Z"/>
  <path class="cls-12" d="M329.22,276.09l1.55.48v2.5c-5.9.76-4.18-3.99-4.36-7.98l-.93-.19-.06-1.69.98-.34-.02-2.96h2.83s0,3.14,0,3.14h1.57s0,1.7,0,1.7l-1.57.18v5.17Z"/>
  <path class="cls-10" d="M110.01,264.96v11.29l1.53.35.04,2.16c-.98-.02-2.36.14-3.24-.37-.33-.2-1.16-1.47-1.16-1.67v-11.76h2.82Z"/>
  <path class="cls-14" d="M351.49,269.04c1.07.18,2.65-.56,2.97.63,1.23-.95,2.79-1.43,4.11-.32-.37,3.31-1.71,1.53-3.09,1.93-.35.1-1.16,1.14-1.16,1.37v6.11h-2.82v-9.72Z"/>
  <path class="cls-17" d="M279.67,225.46c-.52-1.16.6-1.68.62-1.78.14-.61-.19-1.39.16-1.99.92-1.54,4.75-1.05,4.55,1.26l-2.82-.62.14,1.27,3,.29v1.57h-5.65Z"/>
  <path class="cls-2" d="M320.02,228.32l4.21.09.16,3.02-4.59.16c-.47-.33-.58-3.01.22-3.27Z"/>
  <polygon class="cls-8" points="216.01 254.3 216.05 251.37 216.53 250.9 221.01 251.18 221.03 254.3 216.01 254.3"/>
  <rect class="cls-1" x="172.73" y="251.17" width="4.39" height="3.14"/>
  <rect class="cls-2" x="111.26" y="258.37" width="3.77" height="3.14"/>
  <rect class="cls-2" x="116.28" y="258.37" width="3.77" height="3.14"/>
  <rect class="cls-17" x="66.11" y="228.28" width="3.77" height="3.14"/>
  <rect class="cls-17" x="71.12" y="228.28" width="3.77" height="3.14"/>
  <rect class="cls-2" x="243.61" y="251.16" width="3.77" height="3.14"/>
  <rect class="cls-2" x="248.62" y="251.16" width="3.77" height="3.14"/>
  <path class="cls-3" d="M191.55,140.88l-.94-19.91c-.4-14.05-8.45-56.61-30.11-49.85-.3.09-.72.05-.62.46.89.12,1.93.49,2.72.89,16.15,8.16,23.8,42.7,26.35,59.25.19,1.22,1.39,8.82,1.04,9.15h-1.25c-.63-8.63-2.19-17.39-4.55-25.71-4.98-17.59-15.29-38.28-36.97-35.7-2.37.28-4.54,1.19-6.77,1.7-.28.06-.83.38-.95,0l47.66-47.66c3.97-3.19,9.15-3.65,13.18-.31l47.97,47.97c-16.96-5.56-29.18,1.51-37.37,16.25-7.12,12.82-10.25,28.99-11.55,43.48h-1.57c2.32-16.01,5.14-32.63,11.55-47.55,3.62-8.44,9.53-19.04,18.87-21.74-.3-.6-2.05-.84-2.7-.9-15.69-1.43-22.44,18.5-25.11,30.63-2.86,12.98-3.47,26.3-3.86,39.56h-5.02Z"/>
</svg>